{"title":"Bounty Killer 2013 BRRip 480p x264 AAC - VYTO [P2PDL]","uid":9090371,"size":324799805,"categoryP":"video","categoryS":"movies","magnet":"?xt=urn:btih:57bfb812d52abbec0721351a57e762cf9419ad8c&amp;dn=Bounty+Killer+2013+BRRip+480p+x264+AAC+-+VYTO+%5BP2PDL%5D&amp;tr=udp%3A%2F%2Ftracker.openbittorrent.com%3A80&amp;tr=udp%3A%2F%2Fopen.demonii.com%3A1337&amp;tr=udp%3A%2F%2Ftracker.coppersurfer.tk%3A6969&amp;tr=udp%3A%2F%2Fexodus.desync.com%3A6969","seeders":1,"leechers":0,"uploader":"ValidusVyto","files":-1,"time":1382584050,"description":"_______ Visit us at our Semi Public Bittorrent Community ________\n  &lt;a href=&quot;\nhttp://p2pdl.com&quot; rel=&quot;nofollow&quot; target=&quot;_NEW&quot;&gt;\nhttp://p2pdl.com&lt;/a&gt;  _____________________________ &lt;a href=&quot; http://p2pdl.com&quot; rel=&quot;nofollow&quot; target=&quot;_NEW&quot;&gt; http://p2pdl.com&lt;/a&gt;\n\n\n\nBounty Killer 2013 BRRip 480p x264 AAC - VYTO\n\n\nGenre: Action \nPlot: Bounty killers compete for body count, fame and a fat stack of cash. They're\nending the plague of corporate greed and providing the survivors of the apocalypse\nwith retribution. This is the age of the BOUNTY KILLER.   \nDirector: Henry Saine\nStars: Matthew Marsden, Kristanna Loken, Christian Pitre.\nRated: R for strong bloody violence, language and some sexuality/nudity.\n\n\nIMDb: &lt;a href=&quot;\nhttp://www.imdb.com/title/tt2369396/&quot; rel=&quot;nofollow&quot; target=&quot;_NEW&quot;&gt;\nhttp://www.imdb.com/title/tt2369396/&lt;/a&gt;\n\nTrailer:\n\n\nFormat                         : MPEG-4\nFile size                      : 306 MiB\nDuration                       : 1h 32mn\nOverall bit rate mode          : Variable\nOverall bit rate               : 462 Kbps\n\nVideo\nFormat                         : AVC\nBit rate                       : 419 Kbps\nWidth                          : 720 pixels\nHeight                         : 304 pixels\nDisplay aspect ratio           : 2.35:1\nFrame rate mode                : Constant\nFrame rate                     : 23.976 fps\nBit depth                      : 10 bits\nStream size                    : 278 MiB (91%)\nWriting library                : x264 core 138 r2358\n\nAudio\nFormat                         : AAC\nBit rate mode                  : Variable\nBit rate                       : 39.9 Kbps\nChannel(s)                     : 2 channels\nChannel positions              : Front: L R\nSampling rate                  : 48.0 KHz\nStream size                    : 26.5 MiB (9%)\n\nSubtitle                       : N/a\n\nSource                         : BluRay.720p.DTS.x264-CHD\n &lt;a href=&quot;\nhttp://ultraimg.com/images/UA2VI.png&quot; rel=&quot;nofollow&quot; target=&quot;_NEW&quot;&gt;\nhttp://ultraimg.com/images/UA2VI.png&lt;/a&gt; &lt;a href=&quot;\nhttp://ultraimg.com/images/PVl6m.png&quot; rel=&quot;nofollow&quot; target=&quot;_NEW&quot;&gt;\nhttp://ultraimg.com/images/PVl6m.png&lt;/a&gt; &lt;a href=&quot;\nhttp://ultraimg.com/images/tF5hU.png&quot; rel=&quot;nofollow&quot; target=&quot;_NEW&quot;&gt;\nhttp://ultraimg.com/images/tF5hU.png&lt;/a&gt; &lt;a href=&quot;\nhttp://ultraimg.com/images/xMy5X.png&quot; rel=&quot;nofollow&quot; target=&quot;_NEW&quot;&gt;\nhttp://ultraimg.com/images/xMy5X.png&lt;/a&gt; &lt;a href=&quot;\nhttp://ultraimg.com/images/N9PIx.png&quot; rel=&quot;nofollow&quot; target=&quot;_NEW&quot;&gt;\nhttp://ultraimg.com/images/N9PIx.png&lt;/a&gt;\n\n----------------------------------------------------------------------------------------------------\n\n\nEncoded using revolutionary 10bit encoding, which enables us to provide you more crispier \nand sharper images at small sizes, just make sure you follow our instructions without a fault.\nRecommend to you to use latest version of VLC player. Install K-Lite Codec Pack or shark007 codecs\nin case of any kind of problem in playback (For non-VLC Media Player users). Alternatively, install\nCore AVC codecs, the fastest decoder that there is coupled with Community Center Codec Pack and play\non Windows Media Player Classic. Check sample to be sure.\nEnjoy!\n\nEncoder Notes:Looking For Early Access To Anything You Can Provide DVDScr, R5, DVDR, BluRay, Direct\nAudio, Music Releases and Seedboxes. We require dedicated servers, so as to do more \nand fast releases of movies.\n\n\nFacebook Fan Page:  \nSearch P2PDL on FB and hit like!!!\n\nFor more of our team uploads visit @                                             &lt;a href=&quot; http://thepiratebay.se/user/vitamin_x&quot; rel=&quot;nofollow&quot; target=&quot;_NEW&quot;&gt; http://thepiratebay.se/user/vitamin_x&lt;/a&gt;\t","torrent":{"xt":"urn:btih:57bfb812d52abbec0721351a57e762cf9419ad8c","amp;dn":"Bounty+Killer+2013+BRRip+480p+x264+AAC+-+VYTO+%5BP2PDL%5D","amp;tr":["udp%3A%2F%2Ftracker.openbittorrent.com%3A80","udp%3A%2F%2Fopen.demonii.com%3A1337","udp%3A%2F%2Ftracker.coppersurfer.tk%3A6969","udp%3A%2F%2Fexodus.desync.com%3A6969"],"infoHash":"57bfb812d52abbec0721351a57e762cf9419ad8c","infoHashBuffer":{"type":"Buffer","data":[87,191,184,18,213,42,187,236,7,33,53,26,87,231,98,207,148,25,173,140]},"announce":[],"urlList":[]}}